<svg id="Layer_1" data-name="Layer 1" xmlns="http://www.w3.org/2000/svg" width="64" height="64" viewBox="0 0 64 64"><defs><style>.cls-1{fill:#fff;}.cls-2{fill:#1d1d1b;}.cls-3{fill:#ddc07c;}.cls-4{fill:#fab900;}.cls-5{fill:#8ec480;}.cls-6{fill:#e6e4da;}</style></defs><title>alien-2</title><g id="alien-2"><path class="cls-1" d="M17.4,61.42a16.35,16.35,0,0,1-2.48-.11,2,2,0,0,1-1.93-2L13,59c-.27-2.83-.39-5.94,1.57-7a12.17,12.17,0,0,1,3.16-.89c-.95-2.59-2.6-7.09-3.57-9.77-.79-2.17-1.44-4.08-1.86-5.35l-.48.16a3.25,3.25,0,0,1-1.22,2.35,4.86,4.86,0,0,1-2.76,1,3.08,3.08,0,0,1-2.59-1.3,4,4,0,0,1-.74-2.36,4,4,0,0,1-1.22-3.36c.37-2.56,1.67-3.31,2.21-3.52A2.9,2.9,0,0,1,6,28.85a3.52,3.52,0,0,1,2.69-1.43,3,3,0,0,1,.77.1,3.8,3.8,0,0,1,1.08.47,17.72,17.72,0,0,1,.23-5.68,15.9,15.9,0,0,1,1.76-4.72L10,14.91a7,7,0,0,1-2.8.62,5.82,5.82,0,0,1-1.41-.17A5.84,5.84,0,0,1,1.84,12.2a5.85,5.85,0,0,1,.38-5.28c1.45-2.8,4.69-3.79,7-3.79A5.4,5.4,0,0,1,13.73,5a5.56,5.56,0,0,1,.64,4.84l2.16,1.92A25.94,25.94,0,0,1,27.24,5.82a30.7,30.7,0,0,1,7.32-1,17.29,17.29,0,0,1,9.37,2.42A18.12,18.12,0,0,1,48,10.71h0a7.35,7.35,0,0,1,.33-4.88A5.6,5.6,0,0,1,52.14,2.9a8.5,8.5,0,0,1,2.2-.31,5.1,5.1,0,0,1,3.82,1.56C59.9,6,60,8.89,59.91,10.45a5.45,5.45,0,0,1-4.71,5.46,3.68,3.68,0,0,1-.53,0A8.36,8.36,0,0,1,53,15.74L51.53,18a17.94,17.94,0,0,1,1.28,6c.07,2,0,3.53,0,4.5l2,.81a10.37,10.37,0,0,1,2.61-.42,3.53,3.53,0,0,1,2.32.73,3.85,3.85,0,0,1,1.15,1.53,3,3,0,0,1,1.19.92,3,3,0,0,1,.47,2.6,4.9,4.9,0,0,1-1.05,2.09,2.92,2.92,0,0,1-.21,1.81,4.26,4.26,0,0,1-3.88,2.31,3.7,3.7,0,0,1-1.71-.4,8,8,0,0,1-3.19-4.21c-.07-.25-.13-.49-.17-.71l-.51-.16c-.81,2.69-2.4,8-3.22,10.54-.5,1.56-.9,2.89-1.2,3.87,1.53.34,3.33,1.13,3.78,3,0,.05,1.17,5.61-.57,7-1.3,1-9.38,1-9.46,1-2.83,0-4.66-.48-5.57-1.47a2.24,2.24,0,0,1-.62-1.7c0-.49,0-4.06-.08-6h-.44c-.68,0-1.35,0-1.9.08a8.85,8.85,0,0,0-1.37.24c0,.28,0,.6,0,1,.15,5.61.09,6-.15,6.53s-.86,1.88-11.7,2Z"/><path class="cls-2" d="M16.59,14A24.73,24.73,0,0,1,27.65,7.48c6.56-1.62,11.81-1,15.37,1.25s4.63,4.38,4.63,4.38L50,11.35s-2.31-5.5,2.56-6.81,5.81,2.69,5.62,5.81S55.84,14.1,55,14.23a8.91,8.91,0,0,1-2.69-.44l-2.69,4A15.45,15.45,0,0,1,51.11,24,37.27,37.27,0,0,1,51,29.58s3.58,1.5,3.71,1.5,2.92-1,3.92-.17.71,1.58.71,1.58,2,0,1.54,1.75a2.76,2.76,0,0,1-1.67,2.08,1.16,1.16,0,0,1,.5,1.54A2.64,2.64,0,0,1,56.44,39a6.32,6.32,0,0,1-2.33-3.17,8.06,8.06,0,0,1-.29-1.54l-3.17-1s-2.58,8.63-3.71,12.17-1.79,5.83-1.79,5.83,3.88,0,4.33,1.92.42,4.92,0,5.21-5,.67-8.42.67-4.54-.79-4.5-1.33,0-7.54-.25-7.67a16.62,16.62,0,0,0-4,0c-1.67.17-2.88.63-2.92,1s.25,7.29,0,7.75-6.25,1-10.17,1-4.58,0-4.58-.42-.67-5,.63-5.71a19.24,19.24,0,0,1,4.71-1s-2.87-7.83-4.29-11.75-2.37-6.92-2.37-6.92L10.07,35s.29,1.63-.5,2.21-2.25,1-3,0a2.46,2.46,0,0,1-.33-2.08,2.77,2.77,0,0,1-1.33-2.42c.21-1.46.79-2,1.13-2.17a2.56,2.56,0,0,1,.88-.08S7.77,28.83,9,29.16a1.56,1.56,0,0,1,1.29,1.33l2.25-.83a16.36,16.36,0,0,1-.12-7,11.56,11.56,0,0,1,2.29-5.25l-4.42-4.63a5.45,5.45,0,0,1-4.13.92C4,13.16,2,11,3.73,7.71S11,4.12,12.36,6s0,4.33,0,4.33Z"/><path class="cls-3" d="M8.32,31.37l-.54-.87s.21-1,1-.62,1,1.58,1.13,1.54,2.5-1,2.63-.71.54,2.42.54,2.42-4,1-4,1.25S9.44,36,8.9,36.46s-1.33.5-1.5.17-.29-1.17,0-1.21.58-.21.58-.33-.08-.71-.08-.71-1,.33-1.5-.21S5.48,32.08,6,31.71a1.39,1.39,0,0,1,1.54-.08C7.73,31.87,8.32,31.37,8.32,31.37Z"/><path class="cls-2" d="M12.15,31.41c.08.13.29.71.08.83a2.27,2.27,0,0,1-.79.13s-.37-.54-.21-.67A4.41,4.41,0,0,1,12.15,31.41Z"/><path class="cls-4" d="M8.48,6c1.73-.32,3.21.42,3.46,2s-1.83,4-3.25,4.58-3.33.46-4.12-.75S3.52,6.91,8.48,6Z"/><path class="cls-3" d="M12,11.21A37.74,37.74,0,0,1,16,15a5,5,0,0,1-.75,1.29S11,12.62,11.15,12.41,12,11.21,12,11.21Z"/><path class="cls-4" d="M52.9,5.75c1.42-.46,3.83-.21,4.38,3.08s-1.5,4.54-3.54,4.13a3.52,3.52,0,0,1-2.87-3.88C50.94,7.25,51.73,6.12,52.9,5.75Z"/><path class="cls-3" d="M50.52,12.16c.13.17,1.21,1,1.08,1.17s-2.29,3-2.29,3a21.88,21.88,0,0,1-1-2.21C48.36,14,50.52,12.16,50.52,12.16Z"/><path class="cls-5" d="M25.27,9.71c2.44-1.12,8.67-1.92,13-1.25S47,14.33,48,18a49.74,49.74,0,0,1,1.33,7.58s-3.62-2.17-3.79-2-.21.75-.08.83,3.79,1.67,3.88,2,0,2.58,0,2.58a35.29,35.29,0,0,0-3.62-1.58c-.08.13-.46.63,0,.75a23.78,23.78,0,0,1,3.46,2c0,.17-.33,2.71-.33,2.71s-2.75-1.54-2.87-1.5-.29.58-.12.63,2.88,1.67,2.83,1.92S45,45.75,44.86,45.79a21.18,21.18,0,0,1-2.17-.92s-.33.58-.17.67,2.13.88,2,1.08-.37,1-.37,1a13.32,13.32,0,0,0-2.33-1.08c-.12.13-.33.42-.12.58A24,24,0,0,1,44,48.21c0,.17,0,.83-.12.83A23.29,23.29,0,0,0,41.36,48c-.21.08-.46.5-.21.67s2.46,1.08,2.42,1.33a4.84,4.84,0,0,1-.37.88,22.81,22.81,0,0,0-2.25-1.29c-.12,0-.29.63-.17.71a15.07,15.07,0,0,1,2,1.29c0,.13-2.67.29-2.71.63a2.11,2.11,0,0,0,0,.92c.08.17,3,0,4.83.25s2.63.21,2.71.67.29,3.29,0,3.38-5.71,0-7.08-.08-2.12-.33-2.12-.58-.08-7.75-.29-8-3.25-.62-5.71-.5a14.18,14.18,0,0,0-4.46,1,8.76,8.76,0,0,0-1.29-1c-.17,0-.58.29-.46.5s1.25,1.13,1.25,1.25a4,4,0,0,1-.08.5,21,21,0,0,0-3-1.87c-.17.13-.37.63-.17.75a30.48,30.48,0,0,1,3.13,2.33c0,.21.08,1.21.08,1.21s-2.62-1.75-2.79-1.5-.21.79-.08.88,2.79,1.25,2.83,1.54a22.64,22.64,0,0,1,0,3.75c-.17.21-10.62,1-10.75.58s-.12-3.5.17-3.71,6.46-1,6.54-1.21.08-.75-.12-.79-1.37,0-1.42-.08-5.54-14.12-6.75-19.21S13.36,21.29,17,16.5,22.27,11.08,25.27,9.71Z"/><path class="cls-2" d="M33.32,11.62c.33,0,.33,1,.21,1a11,11,0,0,0-6.79,1.88c-3.37,2.33-3.75,3.17-4,3.08s-.71-.25-.62-.46a14.09,14.09,0,0,1,11.17-5.54Z"/><path class="cls-2" d="M43.9,14.91a5,5,0,0,1,2.17,1.21c0,.21,0,.58-.21.46a17.89,17.89,0,0,1-2-1C43.77,15.41,43.69,15.08,43.9,14.91Z"/><path class="cls-2" d="M44.57,17.71s2.79,1.13,3,1.71.33.71.08.67a18.72,18.72,0,0,1-3.17-1.58C44.44,18.29,44.44,17.79,44.57,17.71Z"/><path class="cls-2" d="M45.07,20.83a19.29,19.29,0,0,1,3.08,1.71c.08.29.38.71,0,.54a29.16,29.16,0,0,1-3.21-1.54A3.1,3.1,0,0,1,45.07,20.83Z"/><path class="cls-3" d="M51.19,30.58c.17.08,3.58,1.54,3.71,1.58s2-.87,3-.58.75.83.67,1.08-.37.75-.17.92.21.29.33.29.54-.62.88-.42A1.16,1.16,0,0,1,59.73,35a5.24,5.24,0,0,1-1.58,1.21c-.17,0-.25.5-.08.63s1.08.42.88.79a1.58,1.58,0,0,1-2.42.46c-1.21-1-1.58-3.67-1.62-3.87a2.39,2.39,0,0,0-.5-.92c-.12,0-3.5-1-3.5-1.12S51.19,30.58,51.19,30.58Z"/><path class="cls-2" d="M32.57,39.08c.16,0,3.67.42,6.21-.83s4.08-3.25,4.42-3.17.79.58.71.75A10,10,0,0,1,39.27,40c-3.17,1.42-6.29,1.54-6.54,1.29S32.15,39.16,32.57,39.08Z"/><path class="cls-2" d="M30.69,18.16c3.71-.83,9.08.21,11.17,4.63s1.54,10.33-3.29,13.08-11.29,2.67-14.29-.21S19.11,20.75,30.69,18.16Z"/><path class="cls-6" d="M30.93,19.49c3.2-.71,7.84.18,9.64,4s1.33,8.92-2.84,11.29S28,37.08,25.39,34.6,20.93,21.72,30.93,19.49Z"/><path class="cls-2" d="M31.46,25a3,3,0,0,1,2.38,5.35c-1.46.83-3.41.81-4.32-.06A3.27,3.27,0,0,1,31.46,25Z"/><path class="cls-6" d="M32.23,26a1.59,1.59,0,0,1,1.58.46c.42.5-1,1.67-1.17,1.58S31.48,26.41,32.23,26Z"/></g></svg>